<svg xmlns="http://www.w3.org/2000/svg" viewBox="0 0 1466.73 1229.19"><defs><style>.cls-1{fill:#111;stroke:#111;stroke-width:15px;}.cls-1,.cls-2,.cls-3{stroke-miterlimit:10;}.cls-2{fill:#ef2525;stroke:#ef2525;stroke-width:10px;}.cls-3{fill:#fff;stroke:#fff;}</style></defs><g id="Livello_2" data-name="Livello 2"><g id="Livello_1-2" data-name="Livello 1"><path class="cls-1" d="M255.8,1093.7l-230-345a108.91,108.91,0,0,1,0-120.83l230-345a108.91,108.91,0,0,1,151-30.21h0a108.91,108.91,0,0,1,30.21,151L264.72,662.15a47.09,47.09,0,0,0,0,52.25L437,972.88a108.91,108.91,0,0,1-30.21,151h0A108.91,108.91,0,0,1,255.8,1093.7Z"/><path class="cls-1" d="M1059.9,1124.18h0a108.9,108.9,0,0,1-30.2-151L1202,714.68a47.1,47.1,0,0,0,0-52.26L1029.7,403.94a108.9,108.9,0,0,1,30.2-151h0a108.9,108.9,0,0,1,151,30.2l230,345a108.9,108.9,0,0,1,0,120.82l-230,345A108.91,108.91,0,0,1,1059.9,1124.18Z"/><path class="cls-2" d="M675.13,1217.57h0a108.9,108.9,0,0,1-65-139.62L858.77,395.82a128.82,128.82,0,0,0-242-88.24l-1.25,3.48A108.9,108.9,0,0,1,476.19,376.8h0a108.91,108.91,0,0,1-65.74-139.29l1.52-4.25a346.63,346.63,0,1,1,651.46,237.11L814.75,1152.55A108.91,108.91,0,0,1,675.13,1217.57Z"/><path class="cls-3" d="M588.73,255.55s43.56-78.42,145.21-81.32c0,0-20.33-52.28-133.6-84.23,0,0-117.62,59.54-145.21,174.26C455.13,264.26,487.08,241,588.73,255.55Z"/><path class="cls-3" d="M914,344.12s7.26-37.75-32-94.38c0,0,28.24-61-6.21-159.74,0,0,113.67,47.92,148.52,194.59C1024.36,284.59,935.78,331.06,914,344.12Z"/><path class="cls-3" d="M975,564.85l46.47-129.24S930,489.34,863.18,519.83L815.26,650.52S934.33,589.53,975,564.85Z"/><path class="cls-3" d="M747,836.39s74-34.85,158.28-85.67L857.37,880S792,922.07,700.54,967.08Z"/><path class="cls-3" d="M771.69,1115.2l17.43-49.37L657,1135.53s5.81,31.94,50.83,36.3S771.69,1115.2,771.69,1115.2Z"/></g></g></svg>