<svg xmlns="http://www.w3.org/2000/svg" viewBox="0 0 2050 975.94"><defs><style>.cls-1{stroke:#000;stroke-miterlimit:10;stroke-width:2px;}</style></defs><g id="Livello_2" data-name="Livello 2"><g id="Livello_1-2" data-name="Livello 1"><path class="cls-1" d="M2048.9,492.47c.54-21.24.69-183.93-111-348.5-36.15-53.27-80.08-81.88-110.56-96.51-31.17-15-63.73-12.24-87.1,7.26-46.63,38.9-120.54,130-183.67,210.12-5.26-30.88-16.72-63.68-16.87-64.11-10.23-29.06-40.93-85.88-67.71-112.4-34-33.66-110.62-63.76-142.21-71.68C1255.51-2,1051.61,1,1024.43,1.47,997.25,1,793.34-2,719.05,16.65c-31.59,7.92-108.22,38-142.22,71.68-26.77,26.52-57.48,83.34-67.71,112.4-.16.46-13,37.36-17.75,69.73C427.89,187.11,355.55,94.31,309,55.49c-23.37-19.5-55.93-22.21-87.1-7.26-30.49,14.62-74.41,43.24-110.56,96.51C-.36,309.38.47,472.17,1.1,493.43c-.54,21.22-.7,183.93,111,348.5,36.15,53.27,80.08,81.89,110.56,96.51A92.44,92.44,0,0,0,262.57,948a72.68,72.68,0,0,0,47.16-16.81c46.77-39,121-130.59,184.26-210.87a481.34,481.34,0,0,0,15.13,54.89c10.23,29.07,40.94,85.89,67.71,112.41,34,33.66,110.63,63.76,142.21,71.68,74.3,18.64,278.21,15.67,305.39,15.18,7.58.14,28.88.46,57.29.46,73.5,0,194.5-2.2,248.09-15.64,31.59-7.92,108.22-38,142.21-71.68,26.78-26.52,57.48-83.34,67.71-112.41.15-.42,11.27-32.28,16.63-62.75,64,84.11,137.53,178.67,184.62,218a72.68,72.68,0,0,0,47.17,16.82,92.58,92.58,0,0,0,39.93-9.56c30.49-14.63,74.41-43.24,110.56-96.51C2050.37,676.52,2049.53,513.71,2048.9,492.47ZM272.74,840.1A25.06,25.06,0,0,1,241,843.33a194.74,194.74,0,0,1-52.86-53C136.4,714.05,113.3,638.18,103,588c-11.26-55.08-10-92.42-10-92.65l.12-1.8L93,491.28c0-.37-1.4-37.69,9.69-92.73,10.11-50.17,33-126,84.73-202.19a194.9,194.9,0,0,1,52.66-52.88,25.1,25.1,0,0,1,32,3.52c47.52,49.27,119.36,143.91,169.36,209.79,15.63,20.59,29.84,39.31,41.8,54.7a30.32,30.32,0,0,1,6.37,18.6v5a13.7,13.7,0,0,1-12,13.6C424.85,455.33,348,480,269.46,557A46,46,0,0,0,272,624.93h0a45.88,45.88,0,0,0,61.75-2.23c39.51-38.88,81.75-64.72,126-77,4.68-1.3,9.19-2.39,13.49-3.29a13.71,13.71,0,0,1,16.47,13.45v10.6a30.3,30.3,0,0,1-6.53,18.8c-8.31,10.51-17.69,22.49-27.86,35.47C404.63,685.41,324.47,787.78,272.74,840.1ZM1467.26,684.87c0,9.57-7.19,39.77-14.25,59.82-8,22.75-32.77,64.81-45.68,77.6-15.58,15.43-70.36,40.43-99.89,47.84-53.65,13.46-221.87,13.52-282.17,12.41h-1.69c-60.29,1.11-228.51,1-282.17-12.41-29.52-7.41-84.31-32.41-99.88-47.84-12.92-12.79-37.68-54.85-45.68-77.6-7.06-20.05-14.25-50.24-14.25-59.82V291.07c0-9.57,7.19-39.76,14.25-59.82,8-22.74,32.76-64.81,45.68-77.6,15.57-15.42,70.36-40.42,99.88-47.83,53.65-13.46,221.88-13.53,282.17-12.42l.85,0,.84,0c60.3-1.11,228.52-1,282.17,12.42,29.53,7.41,84.32,32.41,99.89,47.83,12.91,12.79,37.67,54.86,45.68,77.6,7.06,20.06,14.25,50.25,14.25,59.82Zm480-97.52c-10.11,50.18-33,126-84.73,202.19a194.61,194.61,0,0,1-52.66,52.88,25.11,25.11,0,0,1-32-3.51c-47.52-49.27-119.35-143.9-169.35-209.78-16.13-21.24-30.75-40.51-42.94-56.17a30.33,30.33,0,0,1-6.39-18.61V551a13.71,13.71,0,0,1,12.07-13.61c52.82-6.49,130.21-30.93,209.26-108.49A46,46,0,0,0,1778,361h0a45.87,45.87,0,0,0-61.75,2.23c-39.51,38.88-81.75,64.72-126,77-5.1,1.42-10,2.58-14.67,3.53a13.72,13.72,0,0,1-16.43-13.46v-9.39a30.33,30.33,0,0,1,6.54-18.8c8.59-10.86,18.36-23.34,29-36.91,50.65-64.68,130.81-167,182.54-219.38a25.06,25.06,0,0,1,31.73-3.22,194.6,194.6,0,0,1,52.86,53c51.75,76.26,74.85,152.12,85.11,202.33,11.26,55.07,10,92.42,10,92.64l-.12,1.8.13,2.25C1957,495,1958.39,532.31,1947.3,587.35Z"/><path class="cls-1" d="M714.67,756h0a50.08,50.08,0,0,1,0-70.81l84.8-84.8L710.23,511.1a50.06,50.06,0,0,1,0-70.81h0a50.06,50.06,0,0,1,70.81,0L905.69,564.94a50.06,50.06,0,0,1,0,70.81L785.48,756A50.08,50.08,0,0,1,714.67,756Z"/><rect class="cls-1" x="953.34" y="691.7" width="339.93" height="100.14" rx="50.07"/><circle class="cls-1" cx="1303.58" cy="234.38" r="50.07"/><path class="cls-1" d="M1309,284.37a50.29,50.29,0,1,1,44.54-44.53A50.33,50.33,0,0,1,1309,284.37Zm0-99.56A49.87,49.87,0,1,0,1353.15,229,49.92,49.92,0,0,0,1309,184.81Z"/><circle class="cls-1" cx="1153.36" cy="234.38" r="50.07"/><path class="cls-1" d="M1158.82,284.37a50.29,50.29,0,1,1,44.53-44.53A50.34,50.34,0,0,1,1158.82,284.37Zm0-99.56A49.87,49.87,0,1,0,1202.94,229,49.92,49.92,0,0,0,1158.78,184.81Z"/><circle class="cls-1" cx="1003.15" cy="234.38" r="50.07"/><path class="cls-1" d="M1008.6,284.37a50.29,50.29,0,1,1,44.54-44.53A50.33,50.33,0,0,1,1008.6,284.37Zm0-99.56A49.87,49.87,0,1,0,1052.72,229,49.92,49.92,0,0,0,1008.56,184.81Z"/></g></g></svg>