<svg xmlns="http://www.w3.org/2000/svg" xmlns:xlink="http://www.w3.org/1999/xlink" viewBox="0 0 2048.25 2048.25"><defs><style>.cls-1,.cls-2{stroke-miterlimit:10;}.cls-1{stroke-width:0.25px;fill:url(#Sfumatura_senza_nome_20);stroke:url(#Sfumatura_senza_nome_20-2);}.cls-2{fill:#231123;stroke:#231123;stroke-width:2px;}</style><linearGradient id="Sfumatura_senza_nome_20" x1="0.13" y1="1024.13" x2="2048.13" y2="1024.13" gradientUnits="userSpaceOnUse"><stop offset="0" stop-color="#ffb88e"/><stop offset="1" stop-color="#ea5753"/></linearGradient><linearGradient id="Sfumatura_senza_nome_20-2" x1="0" y1="1024.13" x2="2048.25" y2="1024.13" xlink:href="#Sfumatura_senza_nome_20"/></defs><g id="Livello_2" data-name="Livello 2"><g id="Livello_1-2" data-name="Livello 1"><rect class="cls-1" x="0.13" y="0.13" width="2048" height="2048"/><path class="cls-2" d="M1822.11,567c-9.14-16.79-82.23-143.67-243.32-221.69-52.14-25.25-99.26-27.79-129.6-25.47-31,2.37-55.18,19.14-64.62,44.86-18.84,51.3-35.44,155.58-48.6,246.42-18-21.7-41.69-42.11-42-42.38-21-18.05-70.55-48.52-103.35-57.14-41.65-10.94-114.92.09-143.11,8.13-66.29,18.9-223.88,113-244.85,125.59C781.26,657.14,621,746.58,571.47,794.54c-21.05,20.39-67.24,78.33-78.58,119.87-8.94,32.71-7.3,90.82-2.2,118.08.08.42,6.64,35,17.54,62.34-87-36.41-185.12-76.19-238.86-85.5-27-4.68-53.59,7.85-71.16,33.53-17.18,25.12-38.54,67.19-42.74,125-13,178.6,60.91,305.11,71,321.4,9.13,16.77,82.22,143.66,243.32,221.68,52.15,25.26,99.26,27.79,129.6,25.48a83.42,83.42,0,0,0,35.43-10.52,65.46,65.46,0,0,0,29.2-34.34c18.89-51.46,35.54-156.23,48.72-247.26a433.66,433.66,0,0,0,36.5,36c21,18,70.55,48.52,103.35,57.14,41.65,10.94,114.92-.09,143.11-8.12,66.29-18.91,223.88-113,244.85-125.6,6-3.3,22.72-12.63,44.86-25.42,57.29-33.07,150.61-89.24,186.33-123.83,21-20.39,67.24-78.33,78.59-119.87,8.93-32.71,7.3-90.82,2.19-118.08-.08-.39-5.74-30.23-15.28-56.39,87.75,36.75,187.6,77.37,242,86.8a65.41,65.41,0,0,0,44.33-8.11,83.23,83.23,0,0,0,26.82-25.42c17.18-25.12,38.54-67.19,42.75-125C1906.08,709.76,1832.16,583.25,1822.11,567ZM594.16,1637.2A22.54,22.54,0,0,1,570.89,1654a175.21,175.21,0,0,1-65.06-17.54c-74.66-36.15-126.8-84.89-157.39-119.4-33.56-37.86-49.41-67.52-49.5-67.7l-.72-1.45-1.1-1.7c-.18-.28-18.06-28.75-34.18-76.64A504.69,504.69,0,0,1,238,1173.84a175.25,175.25,0,0,1,17.25-64.91,22.59,22.59,0,0,1,26.55-11.68c59.22,17,157.79,58.46,226.42,87.3,21.44,9,40.94,17.21,57.19,23.83A27.3,27.3,0,0,1,578.73,1220l2.23,3.85a12.35,12.35,0,0,1-3.23,16c-38.15,29-87,82.77-113.51,178.16a41.37,41.37,0,0,0,32.54,51.79h0a41.3,41.3,0,0,0,47.13-29.53c13.3-48.08,34.59-87.23,63.52-116.69,3.06-3.12,6.08-6,9-8.63a12.34,12.34,0,0,1,18.89,3.07l4.77,8.26a27.28,27.28,0,0,1,3.37,17.59c-1.75,11.93-3.67,25.49-5.75,40.19C627.35,1457.27,610.94,1573.14,594.16,1637.2Zm861.19-658.53c4.3,7.47,12.29,34.23,15.81,53,4,21.33,3.63,65.26-.68,81-5.2,19-36.65,63.17-56.33,82.23-35.76,34.64-166.85,110.39-214.34,136.66l-.67.37-.65.39c-46.5,28-177.64,103.64-225.52,117.3-26.34,7.51-80.3,12.68-99.38,7.66-15.82-4.16-54.05-25.8-70.52-39.92-14.53-12.46-33.72-32.76-38-40.22l-177.2-306.93c-4.31-7.47-12.29-34.23-15.82-53-4-21.33-3.63-65.26.68-81,5.2-19,36.65-63.17,56.33-82.23,35.77-34.64,166.85-110.39,214.34-136.66L844,717l.65-.39c46.5-28,177.65-103.64,225.52-117.29,26.35-7.52,80.3-12.69,99.38-7.67,15.82,4.15,54.05,25.8,70.52,39.92,14.53,12.46,33.72,32.76,38,40.22Zm330.27-292a504.52,504.52,0,0,1,24.94,195.72,174.87,174.87,0,0,1-17.25,64.91A22.59,22.59,0,0,1,1766.76,959c-59.21-17-157.78-58.45-226.4-87.3-22.12-9.3-42.19-17.74-58.74-24.46a27.26,27.26,0,0,1-13.35-11.63l-1.5-2.6a12.34,12.34,0,0,1,3.27-16c38.26-28.83,87.58-82.7,114.29-178.73a41.38,41.38,0,0,0-32.53-51.81h0a41.29,41.29,0,0,0-47.13,29.53c-13.3,48.08-34.59,87.23-63.52,116.69q-5,5.11-9.85,9.35a12.34,12.34,0,0,1-18.86-3.09l-4.23-7.32a27.3,27.3,0,0,1-3.36-17.6c1.81-12.32,3.81-26.45,6-41.81,10.37-73.2,26.79-189.07,43.56-253.13a22.54,22.54,0,0,1,23.28-16.79,175.22,175.22,0,0,1,65.06,17.53,509.15,509.15,0,0,1,157.39,119.41c33.55,37.86,49.4,67.52,49.5,67.7l.71,1.45,1.11,1.7C1751.62,610.29,1769.5,638.76,1785.62,686.65Z"/><path class="cls-2" d="M900.75,1372.75h0a45.07,45.07,0,0,1-31.86-55.2l27.93-104.25L787.1,1183.9a45.07,45.07,0,0,1-31.86-55.2h0a45.06,45.06,0,0,1,55.19-31.86l153.25,41.06a45.07,45.07,0,0,1,31.87,55.19L956,1340.88A45.08,45.08,0,0,1,900.75,1372.75Z"/><rect class="cls-2" x="1059.9" y="1132.74" width="305.94" height="90.13" rx="45.06" transform="translate(-426.41 764.23) rotate(-30)"/><circle class="cls-2" cx="1125.05" cy="701.21" r="45.06"/><path class="cls-2" d="M1151.8,737.72A45.26,45.26,0,1,1,1166.47,683,45.31,45.31,0,0,1,1151.8,737.72ZM1107,660.13a44.89,44.89,0,1,0,54.3,14.55A44.93,44.93,0,0,0,1107,660.13Z"/><circle class="cls-2" cx="1007.97" cy="768.8" r="45.06"/><path class="cls-2" d="M1034.72,805.31a45.26,45.26,0,1,1,14.67-54.74A45.3,45.3,0,0,1,1034.72,805.31Zm-44.84-77.58a44.88,44.88,0,1,0,54.29,14.55A44.92,44.92,0,0,0,989.88,727.73Z"/><circle class="cls-2" cx="890.89" cy="836.4" r="45.06"/><path class="cls-2" d="M917.64,872.91a45.26,45.26,0,1,1,14.67-54.75A45.3,45.3,0,0,1,917.64,872.91ZM872.8,795.32a44.88,44.88,0,1,0,54.29,14.55A44.93,44.93,0,0,0,872.8,795.32Z"/></g></g></svg>