<svg xmlns="http://www.w3.org/2000/svg" xmlns:xlink="http://www.w3.org/1999/xlink" viewBox="0 0 2048.25 2048.25"><defs><style>.cls-1,.cls-2{stroke-miterlimit:10;}.cls-1{stroke-width:0.25px;fill:url(#Sfumatura_senza_nome_28);stroke:url(#Sfumatura_senza_nome_28-2);}.cls-2{fill:#231123;stroke:#231123;stroke-width:2px;}</style><linearGradient id="Sfumatura_senza_nome_28" x1="0.13" y1="1024.13" x2="2048.12" y2="1024.13" gradientUnits="userSpaceOnUse"><stop offset="0" stop-color="#ffb88e"/><stop offset="1" stop-color="#ea5753"/></linearGradient><linearGradient id="Sfumatura_senza_nome_28-2" x1="0" y1="1024.13" x2="2048.25" y2="1024.13" xlink:href="#Sfumatura_senza_nome_28"/></defs><g id="Livello_2" data-name="Livello 2"><g id="Livello_1-2" data-name="Livello 1"><rect class="cls-1" x="0.13" y="0.13" width="2048" height="2048" rx="1024"/><path class="cls-2" d="M1824.11,563.3c-9.14-16.79-82.23-143.67-243.32-221.68-52.14-25.26-99.26-27.79-129.6-25.47-31,2.37-55.18,19.13-64.62,44.85-18.84,51.3-35.44,155.58-48.6,246.42-18-21.69-41.69-42.11-42-42.37-21-18.06-70.55-48.53-103.35-57.15C1151,497,1077.7,508,1049.51,516c-66.29,18.91-223.88,113-244.85,125.59C783.26,653.47,623,742.91,573.47,790.87c-21.05,20.39-67.24,78.33-78.58,119.87-8.94,32.72-7.3,90.82-2.2,118.08.08.42,6.64,35,17.54,62.34-87-36.4-185.12-76.18-238.86-85.5-27-4.68-53.59,7.86-71.16,33.54-17.18,25.11-38.54,67.18-42.74,125-13,178.6,60.91,305.11,71,321.4,9.13,16.78,82.22,143.67,243.32,221.69,52.15,25.25,99.26,27.79,129.6,25.47a83.28,83.28,0,0,0,35.43-10.52,65.44,65.44,0,0,0,29.2-34.33c18.89-51.46,35.54-156.23,48.72-247.27a431.87,431.87,0,0,0,36.5,36c21,18.05,70.55,48.52,103.35,57.14,41.65,11,114.92-.08,143.11-8.12,66.29-18.91,223.88-113,244.85-125.59,6-3.31,22.72-12.64,44.86-25.42,57.29-33.08,150.61-89.25,186.33-123.83,21-20.39,67.24-78.34,78.59-119.87,8.93-32.72,7.3-90.83,2.19-118.08-.08-.4-5.74-30.23-15.28-56.4,87.75,36.75,187.6,77.38,242,86.81a65.47,65.47,0,0,0,44.33-8.12,83.23,83.23,0,0,0,26.82-25.42c17.18-25.12,38.54-67.19,42.75-125C1908.08,706.09,1834.16,579.58,1824.11,563.3ZM596.16,1633.53a22.53,22.53,0,0,1-23.27,16.79,175,175,0,0,1-65.06-17.53,508.9,508.9,0,0,1-157.39-119.41c-33.56-37.86-49.41-67.52-49.5-67.69l-.72-1.46-1.1-1.7c-.18-.28-18.06-28.75-34.18-76.63A504.74,504.74,0,0,1,240,1170.17a175.31,175.31,0,0,1,17.25-64.91,22.6,22.6,0,0,1,26.55-11.68c59.22,17,157.79,58.46,226.42,87.31,21.44,9,40.94,17.21,57.19,23.83a27.23,27.23,0,0,1,13.33,11.62l2.23,3.86a12.36,12.36,0,0,1-3.23,16c-38.15,29-87,82.76-113.51,178.15a41.36,41.36,0,0,0,32.54,51.79h0a41.29,41.29,0,0,0,47.13-29.53c13.3-48.08,34.59-87.23,63.52-116.69,3.06-3.12,6.08-6,9-8.63a12.34,12.34,0,0,1,18.89,3.07l4.77,8.27a27.24,27.24,0,0,1,3.37,17.58c-1.75,11.94-3.67,25.5-5.75,40.19C629.35,1453.61,612.94,1569.47,596.16,1633.53ZM1457.35,975c4.3,7.46,12.29,34.23,15.81,53,4,21.33,3.63,65.25-.68,81-5.2,19-36.65,63.18-56.33,82.24C1380.39,1226,1249.3,1301.7,1201.81,1328l-.67.37-.65.39c-46.5,28-177.64,103.64-225.52,117.3-26.34,7.51-80.3,12.68-99.38,7.66-15.82-4.15-54.05-25.79-70.52-39.92-14.53-12.46-33.72-32.75-38-40.22l-177.2-306.93c-4.31-7.46-12.29-34.23-15.82-53-4-21.33-3.63-65.26.68-81,5.2-19,36.65-63.17,56.33-82.23,35.77-34.63,166.85-110.39,214.34-136.65l.67-.37.65-.39c46.5-28,177.65-103.65,225.52-117.3,26.35-7.52,80.3-12.68,99.38-7.67,15.82,4.16,54.05,25.8,70.52,39.93,14.53,12.46,33.72,32.75,38,40.21Zm330.27-292a504.55,504.55,0,0,1,24.94,195.72,174.81,174.81,0,0,1-17.25,64.91,22.59,22.59,0,0,1-26.55,11.68c-59.21-17-157.78-58.45-226.4-87.3-22.12-9.3-42.19-17.73-58.74-24.46a27.21,27.21,0,0,1-13.35-11.63l-1.5-2.6a12.34,12.34,0,0,1,3.27-16c38.26-28.82,87.58-82.7,114.29-178.72a41.38,41.38,0,0,0-32.53-51.82h0a41.31,41.31,0,0,0-47.13,29.53c-13.3,48.08-34.59,87.23-63.52,116.7q-5,5.1-9.85,9.35a12.35,12.35,0,0,1-18.86-3.1l-4.23-7.32a27.27,27.27,0,0,1-3.36-17.59c1.81-12.33,3.81-26.46,6-41.82,10.37-73.2,26.79-189.06,43.56-253.13a22.56,22.56,0,0,1,23.28-16.79,175.26,175.26,0,0,1,65.06,17.54c74.65,36.15,126.79,84.89,157.39,119.4,33.55,37.86,49.4,67.52,49.5,67.7l.71,1.46,1.11,1.69C1753.62,606.63,1771.5,635.09,1787.62,683Z"/><path class="cls-2" d="M902.75,1369.08h0a45.06,45.06,0,0,1-31.86-55.19l27.93-104.26-109.72-29.4A45.06,45.06,0,0,1,757.24,1125h0a45.07,45.07,0,0,1,55.19-31.87l153.25,41.06a45.08,45.08,0,0,1,31.87,55.2L958,1337.21A45.08,45.08,0,0,1,902.75,1369.08Z"/><rect class="cls-2" x="1061.9" y="1129.07" width="305.94" height="90.13" rx="45.06" transform="translate(-424.31 764.74) rotate(-30)"/><circle class="cls-2" cx="1127.05" cy="697.54" r="45.06"/><path class="cls-2" d="M1153.8,734.05a45.26,45.26,0,1,1,14.67-54.75A45.3,45.3,0,0,1,1153.8,734.05ZM1109,656.46a44.89,44.89,0,1,0,54.3,14.55A44.94,44.94,0,0,0,1109,656.46Z"/><circle class="cls-2" cx="1009.97" cy="765.14" r="45.06"/><path class="cls-2" d="M1036.72,801.65a45.26,45.26,0,1,1,14.67-54.75A45.31,45.31,0,0,1,1036.72,801.65Zm-44.84-77.59a44.89,44.89,0,1,0,54.29,14.55A44.92,44.92,0,0,0,991.88,724.06Z"/><circle class="cls-2" cx="892.89" cy="832.73" r="45.06"/><path class="cls-2" d="M919.64,869.24a45.26,45.26,0,1,1,14.67-54.74A45.3,45.3,0,0,1,919.64,869.24ZM874.8,791.66a44.88,44.88,0,1,0,54.29,14.55A44.92,44.92,0,0,0,874.8,791.66Z"/></g></g></svg>